<svg width="15" height="15" viewBox="0 0 15 15" fill="none" xmlns="http://www.w3.org/2000/svg">
<path d="M1.90804 7.10526C1.40735 7.10526 0.984159 6.91447 0.638451 6.53289C0.292742 6.15132 0.119888 5.68421 0.119888 5.13158C0.119888 4.57895 0.292742 4.11184 0.638451 3.73026C0.984159 3.34868 1.40735 3.15789 1.90804 3.15789C2.40872 3.15789 2.83191 3.34868 3.17762 3.73026C3.52333 4.11184 3.69618 4.57895 3.69618 5.13158C3.69618 5.68421 3.52333 6.15132 3.17762 6.53289C2.83191 6.91447 2.40872 7.10526 1.90804 7.10526ZM5.1267 3.94737C4.62602 3.94737 4.20282 3.75658 3.85712 3.375C3.51141 2.99342 3.33855 2.52632 3.33855 1.97368C3.33855 1.42105 3.51141 0.953947 3.85712 0.572368C4.20282 0.190789 4.62602 0 5.1267 0C5.62738 0 6.05058 0.190789 6.39628 0.572368C6.74199 0.953947 6.91485 1.42105 6.91485 1.97368C6.91485 2.52632 6.74199 2.99342 6.39628 3.375C6.05058 3.75658 5.62738 3.94737 5.1267 3.94737ZM9.41825 3.94737C8.91757 3.94737 8.49438 3.75658 8.14867 3.375C7.80296 2.99342 7.63011 2.52632 7.63011 1.97368C7.63011 1.42105 7.80296 0.953947 8.14867 0.572368C8.49438 0.190789 8.91757 0 9.41825 0C9.91893 0 10.3421 0.190789 10.6878 0.572368C11.0335 0.953947 11.2064 1.42105 11.2064 1.97368C11.2064 2.52632 11.0335 2.99342 10.6878 3.375C10.3421 3.75658 9.91893 3.94737 9.41825 3.94737ZM12.6369 7.10526C12.1362 7.10526 11.713 6.91447 11.3673 6.53289C11.0216 6.15132 10.8488 5.68421 10.8488 5.13158C10.8488 4.57895 11.0216 4.11184 11.3673 3.73026C11.713 3.34868 12.1362 3.15789 12.6369 3.15789C13.1376 3.15789 13.5608 3.34868 13.9065 3.73026C14.2522 4.11184 14.4251 4.57895 14.4251 5.13158C14.4251 5.68421 14.2522 6.15132 13.9065 6.53289C13.5608 6.91447 13.1376 7.10526 12.6369 7.10526ZM3.44584 15C2.9094 15 2.45926 14.7732 2.09543 14.3195C1.7316 13.8658 1.54993 13.3295 1.55041 12.7105C1.55041 12.0263 1.76212 11.4276 2.18556 10.9145C2.60899 10.4013 3.02908 9.89474 3.44584 9.39474C3.79155 8.98684 4.08958 8.54289 4.33992 8.06289C4.59026 7.58289 4.88828 7.13211 5.23399 6.71053C5.49625 6.36842 5.80024 6.08553 6.14594 5.86184C6.49165 5.63816 6.86716 5.52632 7.27248 5.52632C7.67779 5.52632 8.0533 5.63158 8.39901 5.8421C8.74472 6.05263 9.0487 6.32895 9.31096 6.67105C9.64475 7.0921 9.93991 7.54605 10.1965 8.0329C10.453 8.51974 10.7539 8.97368 11.0991 9.39474C11.5163 9.89474 11.9364 10.4013 12.3594 10.9145C12.7824 11.4276 12.9941 12.0263 12.9945 12.7105C12.9945 13.3289 12.8126 13.8653 12.4488 14.3195C12.085 14.7737 11.6351 15.0005 11.0991 15C10.4554 15 9.81761 14.9408 9.18579 14.8224C8.55398 14.7039 7.91621 14.6447 7.27248 14.6447C6.62874 14.6447 5.99097 14.7039 5.35916 14.8224C4.72735 14.9408 4.08957 15 3.44584 15Z" fill="white"/>
</svg>
